<?xml version="1.0" encoding="iso-8859-1"?>
<!-- Generator: Adobe Illustrator 19.0.0, SVG Export Plug-In . SVG Version: 6.00 Build 0)  -->
<svg version="1.1" id="Layer_1" xmlns="http://www.w3.org/2000/svg" xmlns:xlink="http://www.w3.org/1999/xlink" x="0px" y="0px"
	 viewBox="0 0 512 512" style="enable-background:new 0 0 512 512;" xml:space="preserve">
<path style="fill:#999999;" d="M256,0C114.616,0,0,114.616,0,256s114.616,256,256,256s256-114.616,256-256S397.384,0,256,0z"/>
<polygon points="199.32,187.152 172.76,108.56 104,108.56 104,87.56 187.832,87.56 219.216,180.424 "/>
<polygon style="fill:#FFFFFF;" points="148.376,169.512 440,169.512 384.416,325.472 196.944,325.472 "/>
<circle cx="351.688" cy="384" r="40.4"/>
<circle cx="229.72" cy="384" r="40.4"/>
<path style="fill:#F00000;" d="M427.944,299.968h-172.76c-15.744,0-28.616-12.88-28.616-28.616v-47.224
	c0-15.744,12.88-28.616,28.616-28.616h172.76c15.744,0,28.616,12.88,28.616,28.616v47.224
	C456.56,287.088,443.688,299.968,427.944,299.968z"/>
<g>
	<path style="fill:#FFFFFF;" d="M260.464,259.776c2.992,1.528,7.6,3.072,12.352,3.072c5.12,0,7.832-2.128,7.832-5.344
		c0-3.072-2.344-4.824-8.264-6.944c-8.184-2.848-13.52-7.384-13.52-14.544c0-8.416,7.016-14.84,18.64-14.84
		c5.56,0,9.656,1.168,12.576,2.488l-2.488,8.992c-1.976-0.944-5.488-2.336-10.312-2.336s-7.168,2.192-7.168,4.752
		c0,3.152,2.784,4.528,9.144,6.944c8.704,3.216,12.8,7.752,12.8,14.696c0,8.264-6.36,15.288-19.888,15.288
		c-5.632,0-11.184-1.472-13.968-3L260.464,259.776z"/>
	<path style="fill:#FFFFFF;" d="M311.264,225.264v10.232h7.968v8.192h-7.968v12.936c0,4.312,1.024,6.288,4.392,6.288
		c1.384,0,2.488-0.152,3.288-0.288l0.072,8.408c-1.464,0.584-4.096,0.952-7.232,0.952c-3.584,0-6.584-1.248-8.336-3.08
		c-2.056-2.12-3.08-5.552-3.08-10.6v-14.616h-4.752v-8.192h4.752v-7.752L311.264,225.264z"/>
	<path style="fill:#FFFFFF;" d="M360.624,252.976c0,13.088-9.288,19.088-18.864,19.088c-10.464,0-18.496-6.872-18.496-18.432
		c0-11.544,7.6-18.936,19.088-18.936C353.312,234.688,360.624,242.224,360.624,252.976z M334.736,253.336
		c0,6.144,2.56,10.752,7.312,10.752c4.312,0,7.096-4.312,7.096-10.752c0-5.336-2.048-10.752-7.096-10.752
		C336.712,242.592,334.736,248.072,334.736,253.336z"/>
	<path style="fill:#FFFFFF;" d="M367.488,247.272c0-5.264-0.152-8.704-0.296-11.776h9.584l0.36,6.584h0.296
		c1.832-5.192,6.208-7.392,9.648-7.392c1.024,0,1.536,0,2.344,0.152v10.456c-0.808-0.144-1.76-0.288-3-0.288
		c-4.096,0-6.872,2.192-7.6,5.632c-0.152,0.728-0.216,1.608-0.216,2.488v18.136h-11.12L367.488,247.272L367.488,247.272z"/>
	<path style="fill:#FFFFFF;" d="M403.232,256.928c0.368,4.6,4.896,6.8,10.096,6.8c3.8,0,6.864-0.512,9.864-1.464l1.464,7.528
		c-3.656,1.464-8.12,2.192-12.936,2.192c-12.144,0-19.088-7.024-19.088-18.208c0-9.064,5.632-19.088,18.064-19.088
		c11.544,0,15.936,9,15.936,17.84c0,1.896-0.216,3.584-0.368,4.392h-23.032V256.928z M416.32,249.32
		c0-2.704-1.168-7.232-6.288-7.232c-4.68,0-6.576,4.232-6.864,7.232H416.32z"/>
</g>
<g>
</g>
<g>
</g>
<g>
</g>
<g>
</g>
<g>
</g>
<g>
</g>
<g>
</g>
<g>
</g>
<g>
</g>
<g>
</g>
<g>
</g>
<g>
</g>
<g>
</g>
<g>
</g>
<g>
</g>
</svg>
